<svg width="117" height="24" viewBox="0 0 117 24" fill="none" xmlns="http://www.w3.org/2000/svg">
<g id="Group 2">
<g id="Vector">
<path id="Vector_2" d="M47.0268 6.25738C47.5346 5.43949 48.6129 5.46253 49.4636 5.43949C50.4644 5.48886 51.5377 5.28315 52.4758 5.72912C52.8864 5.90027 53.1237 6.29358 53.3266 6.66714C54.939 9.80372 56.6405 12.8926 58.2595 16.0243C58.3948 16.3682 58.6833 16.7006 58.6141 17.0923C58.3387 17.3704 57.9298 17.3868 57.5655 17.3951C56.8944 17.4 56.2251 17.4017 55.5573 17.3918C55.0214 17.3951 54.4378 17.1944 54.1509 16.7187C53.8888 16.2629 53.6893 15.7758 53.4518 15.3085C51.1437 15.3397 48.8354 15.2936 46.5289 15.3315C46.1233 16.0671 45.9024 17.1713 44.9312 17.3408C43.9684 17.4494 42.989 17.3902 42.0196 17.3886C41.6981 17.4231 41.4788 17.1647 41.2727 16.9673C43.1803 13.3929 45.0582 9.80048 47.0268 6.25738ZM50.0077 8.28481C49.2855 9.71652 48.6029 11.168 47.871 12.5931C49.2822 12.6539 50.7035 12.6705 52.1147 12.5866C51.3662 11.1762 50.7611 9.69348 50.0077 8.28481Z" fill="#F9F7EF"/>
<path id="Vector_3" d="M59.2257 6.38067C59.2158 5.73887 59.9512 5.49695 60.4837 5.50517C62.9436 5.49366 65.4034 5.46897 67.8618 5.50188C69.5154 5.67468 71.4032 6.07292 72.4106 7.53096C73.1327 8.4805 73.2118 9.75094 72.9299 10.8765C72.6249 11.5973 72.1665 12.2819 71.5005 12.7164C71.0817 12.9814 70.6233 13.1722 70.1881 13.4059C71.2664 14.4625 72.2391 15.616 73.2828 16.7038C73.5367 16.9819 73.1607 17.3703 72.859 17.3785C71.9868 17.418 71.1113 17.3818 70.2392 17.3982C69.7512 17.3834 69.1807 17.423 68.7998 17.0626C67.8205 16.0619 67.0539 14.8607 66.0514 13.8881C65.1776 13.8305 64.2988 13.8996 63.4217 13.87C63.4068 14.9034 63.3904 15.9369 63.3738 16.9721C63.1035 17.1481 62.8397 17.3934 62.4984 17.3834C61.7235 17.4016 60.9486 17.4114 60.1737 17.3916C59.7417 17.3851 59.1499 17.1283 59.2059 16.6117C59.1911 13.2019 59.1845 9.79044 59.2257 6.38067ZM63.3738 8.30442C63.3608 9.28522 63.3738 10.266 63.3656 11.2469C64.5082 11.2567 65.6507 11.2517 66.7934 11.2469C67.3424 11.2501 67.8914 11.0609 68.335 10.7399C68.8246 10.3351 68.9367 9.56828 68.6069 9.0318C68.2722 8.55949 67.6705 8.37847 67.1247 8.311C65.8734 8.29784 64.6237 8.31429 63.3738 8.30442Z" fill="#F9F7EF"/>
<path id="Vector_4" d="M75.1095 5.79644C75.5629 5.48048 76.1515 5.49693 76.6841 5.49036C79.8068 5.48542 82.9311 5.48871 86.0555 5.48048C86.3901 5.48871 86.6704 5.76353 86.8072 6.05317C86.8435 6.65053 86.8418 7.25448 86.7759 7.85021C86.5681 8.11186 86.2582 8.33567 85.907 8.29947C83.5707 8.29782 81.2362 8.30605 78.8999 8.3044C78.8818 8.90507 78.8736 9.50737 78.8884 10.1114C81.0136 10.1294 83.1405 10.1196 85.2673 10.1064C85.5723 10.0603 85.7916 10.3121 85.9532 10.5359C85.9961 11.0741 85.9631 11.6171 85.9532 12.1569C85.9944 12.4679 85.7108 12.7772 85.3976 12.7658C83.2328 12.774 81.0663 12.746 78.9016 12.7706C78.8785 13.3713 78.8736 13.972 78.8818 14.5744C81.3434 14.5908 83.8066 14.5792 86.2698 14.5908C86.5847 14.5595 86.766 14.8573 86.9622 15.0483C86.9441 15.6258 86.916 16.2084 86.9919 16.7861C86.7578 17.1431 86.3703 17.4048 85.9318 17.3834C82.6161 17.3834 79.3006 17.4146 75.9867 17.3604C75.2233 17.4016 74.6115 16.7088 74.6693 15.9649C74.6858 13.0471 74.6743 10.1278 74.6841 7.21005C74.7369 6.72952 74.6363 6.10088 75.1095 5.79644Z" fill="#F9F7EF"/>
<path id="Vector_5" d="M92.5481 6.4432C93.0609 5.44264 94.3353 5.46075 95.3048 5.44594C96.388 5.47392 97.7371 5.20896 98.5344 6.14205C99.6206 7.9934 100.55 9.93694 101.588 11.8163C102.527 13.5014 103.39 15.2276 104.279 16.9407C104.059 17.1053 103.874 17.3884 103.57 17.3686C102.735 17.395 101.901 17.3884 101.069 17.3916C100.605 17.4016 100.096 17.2633 99.8272 16.8602C99.5005 16.373 99.2679 15.8332 99.0061 15.3132C96.7507 15.3412 94.4953 15.3001 92.2398 15.3149C91.7534 16.0143 91.6363 17.1235 90.6735 17.3538C89.9728 17.4608 89.2572 17.3768 88.5515 17.4C88.0042 17.3934 87.32 17.4509 86.9705 16.9325C88.8054 13.424 90.6553 9.92042 92.5481 6.4432ZM95.5587 8.42621C94.8596 9.82992 94.1902 11.2501 93.4433 12.6308C94.8546 12.6226 96.266 12.6769 97.6755 12.6111C97.0393 11.1892 96.317 9.80853 95.6527 8.39988C95.6295 8.40645 95.5817 8.41962 95.5587 8.42621Z" fill="#F9F7EF"/>
<path id="Vector_6" d="M104.748 6.37408C104.717 5.88203 105.182 5.43277 105.676 5.47886C106.449 5.47391 107.221 5.46404 107.997 5.47062C108.468 5.47227 108.976 5.89355 108.922 6.39218C108.943 9.09762 108.913 11.8031 108.898 14.5085C111.35 14.497 113.803 14.4855 116.255 14.4887C116.687 14.4262 117.044 14.8771 116.996 15.282C116.989 15.807 116.965 16.3318 116.971 16.8584C116.735 17.1399 116.452 17.4296 116.05 17.3884C112.767 17.4114 109.48 17.3934 106.195 17.3834C105.634 17.3637 104.841 17.237 104.755 16.5573C104.679 15.4778 104.676 14.3933 104.722 13.3122C104.724 11 104.727 8.68622 104.748 6.37408Z" fill="#F9F7EF"/>
</g>
<path id="Vector_2_2" d="M11.9827 0.0266058C12.4975 0.00186894 13.0141 0.0205736 13.5289 0.0127302C13.8393 -0.00597327 14.1509 -0.00295666 14.4613 0.0145402C15.1898 0.0187635 15.9183 0.0103172 16.6468 0.018764C17.3841 0.024194 18.0958 0.383179 18.5582 0.93282C18.8299 1.22845 18.9951 1.59468 19.1964 1.93497C20.2539 3.80712 21.3172 5.67686 22.3866 7.54299C24.1783 10.7159 25.9644 13.8925 27.7712 17.0577C28.2043 17.8528 28.8069 18.6239 28.8406 19.5579C28.9172 20.4496 28.4311 21.3582 27.6403 21.8173C26.7167 22.3597 25.7725 22.8683 24.8389 23.3951C24.5809 23.5303 24.3297 23.6787 24.0624 23.7975C23.3825 24.0955 22.5561 24.0654 21.9092 23.7016C20.1929 22.8014 18.4852 21.8849 16.7727 20.9787C16.2916 20.7253 15.8186 20.4581 15.3244 20.23C14.7585 19.973 14.0717 19.9277 13.499 20.1901C13.0222 20.4032 12.5679 20.6589 12.1036 20.8955C10.3941 21.7697 8.70648 22.6826 7.00885 23.5779C6.72094 23.7269 6.43363 23.891 6.10832 23.9489C5.53497 24.0799 4.92983 23.9412 4.42876 23.6587C3.38924 23.0807 2.36469 22.4798 1.33577 21.8849C0.606611 21.4813 0.0687808 20.7368 0.010199 19.9168C-0.0564845 19.2122 0.212742 18.5286 0.557379 17.921C3.54755 12.6689 6.51153 7.40301 9.51043 2.15579C9.79521 1.69303 9.99965 1.17175 10.4041 0.789829C10.8186 0.37051 11.3863 0.0917663 11.9827 0.0266058ZM14.0524 10.1307C13.628 10.2345 13.2752 10.5386 13.0752 10.9108C12.7368 11.5244 12.3728 12.1247 12.0207 12.7317C10.7606 14.8971 9.52289 17.0757 8.26712 19.2442C8.16242 19.4323 8.10321 19.6441 8.11007 19.8595C8.09511 20.3536 8.46468 20.8376 8.96387 20.9552C9.24619 21.0161 9.55841 21.0047 9.81646 20.8677C12.2987 19.5162 14.7984 18.1937 17.2925 16.8634C17.5405 16.7306 17.8047 16.6093 17.9998 16.4054C18.3532 16.0278 18.3881 15.4256 18.1151 14.9961C17.3112 13.5842 16.4835 12.1862 15.6771 10.7757C15.3605 10.2411 14.6644 9.98285 14.0524 10.1307Z" fill="#FBF2FF"/>
</g>
</svg>
